<svg xmlns="http://www.w3.org/2000/svg" viewBox="0 0 800 600"><defs><style>.cls-1,.cls-3{fill:#29abe2;}.cls-1,.cls-4{stroke:#333;stroke-width:4px;}.cls-1,.cls-2,.cls-4,.cls-8,.cls-9{stroke-miterlimit:10;}.cls-2{fill:#009245;stroke:#006837;stroke-width:2px;}.cls-4,.cls-9{fill:none;}.cls-5{font-size:110px;}.cls-5,.cls-6,.cls-7{fill:#1a1a1a;}.cls-5,.cls-6{font-family:SaucerBB, Saucer BB;}.cls-6{font-size:200px;}.cls-8{fill:#ff931e;stroke:#ff931e;}.cls-9{stroke:#000;stroke-width:0.5px;}</style></defs><title>Logo</title><g id="Erdball"><circle class="cls-1" cx="400" cy="301" r="177"/><path class="cls-2" d="M416,294c15-6,31,37,31,37l5,11s3,5,8-4,0-17,0-20,16-17,16-17l8-8s14,5,14,18,8-10,8-10l2.21,13.71L511,332s5,18,12,15-10-19-10-19l-1-13s12,0,13,9,11-11,7-16-17-18-11-22l6-4v10l6-18s5-3,5-13-7-19-7-19l-8-13-4-10,14,11s5-6-8-20l-8-20-12-13h-8l-10-13,1-6-11-9-22-11,3,8-8,3,6,6-10-1-9,7-4-9-8,3-6,8v6s-7,0-9-1-5,8-5,8-9-6-11-3-9,5-9,5l-6,4s-10,4-11,2,0-8,0-8l7,3,4-3-7-5-1-4-17,2-13,7-8,1-7,7,5,2v4l-5,4,6,2,5-6,7-4c0-4,4-6,4-6l8-4,1,6-6,1-4,4,5,1h4l1,5-9-2-10,5-3,5-9-3-5-2,3-8-9,9-7,2-6,2h-7v6l-6,6h-6l-4-4-7,11-3,4,6,5,8-3,5-5,4-3,4,3,5-1s3,4,3,6a16,16,0,0,0,.92,4c.52,1.6,1.08,3,1.08,3l-6,6-2,4h6l5-8-1-15,4,1,3,7v15l-1,4,2,3,2-4v-3l3-6,7,1v5l-1,8,4,4,5-2,4,2,4,2s1,6-1,7-3,5-3,5,0,1-3,2-6,0-8,0-5-2-7-1-6-7-8-7-6-3-6-3l-6,5-6-7-8-11,2-4h-3l-2-7-12-2-4-3-4,5s-5,2-7,3-6,9-6,9l-10,9s-7,11-7,13v19s1,15,0,17,4,12,4,12l5,3,11,2,6,8,4,9v13l7,14,5,13s-1,7-1,10,8,21,8,21l15,19,6,6,13,4h10l2-10,4-4-3-10,14-7-3-17-4-12,17-15,18-19,3-12-20,4-14-16-3-11-3-11-4-14-2-11,7,6,5,19s6,9,7,11,5,18,5,18h11l16-6,16-13,3-9-8-7-12,6-7-11-2-9h5l6,9h10l4,3,5,2Z"/><polygon class="cls-2" points="460 338 463 349 466 349 466 344 463 338 460 338"/><polygon class="cls-2" points="526 367 526 354 520 349 510 344 505 344 511 349 521 367 526 367"/><path class="cls-2" d="M529,367s1.48.25,3.5.48c3.71.43,9.21.82,10.5-.48,2-2,13-6,13-6s6-15,4-12-16,8-15,12-19,6-19,6"/><path class="cls-2" d="M548,319s-5,9-5,11-5,8-5,8-5,11-4,11h14V338l3-10Z"/><path class="cls-2" d="M569.1,353.45,558,367l-7,9s-1,6-4,9l-9,9s-7,5-8,9-4,13-4,13l-.56,9.88,10.35-11.34,17.44-24.87,12.3-25.87Z"/><path class="cls-2" d="M371,404c-2,3-13,9-13,9v7l-4,6,4,6h5l8-6v-8l4-7Z"/><path class="cls-2" d="M375,138s-2,9-5,9H358l-18,5-13-3-10,3,11.46-12.94L346,138l19-7h16s8,1,5,3S375,138,375,138Z"/><path class="cls-3" d="M386,235l1-6h-5l-7,6-3,7s3,2,3,5-4,3-3,6,5,6,7,6,5,4,7,0,0-11,0-11l1-3-4-5Z"/><path class="cls-3" d="M360,241l-6-7v-5l-11-3s-6-1-8,3-7,6-7,6l6,5h10Z"/><circle class="cls-4" cx="400" cy="301" r="177"/></g><g id="Titel"><text class="cls-5" transform="translate(43.66 332.49)">kno</text><text class="cls-5" transform="translate(446.66 332.49)">here</text><text class="cls-6" transform="translate(287.66 363.12)">W</text></g><g id="Dart"><polygon class="cls-7" points="486.79 223.2 549.47 181.08 544.5 174.5 486.79 223.2"/><rect class="cls-7" x="541" y="151" width="73" height="8" transform="translate(23.11 379.03) rotate(-37.03)"/><line class="cls-8" x1="556.5" y1="165.5" x2="561.5" y2="172.5"/><line class="cls-8" x1="560.5" y1="162.5" x2="565.5" y2="169.5"/><line class="cls-8" x1="568.5" y1="156.5" x2="573.5" y2="163.5"/><polygon class="cls-8" points="607.5 129.5 644.5 99.5 624 79 626.5 86.5 620.5 87.5 620.5 94.5 615.5 97.5 607.5 129.5"/><polygon class="cls-8" points="610.35 133.19 647.39 103.24 663.18 127.55 656.36 123.55 654.14 129.21 647.29 127.75 643.32 132.02 610.35 133.19"/><line class="cls-9" x1="485.5" y1="222.5" x2="488.5" y2="223.5"/></g></svg>