<?xml version="1.0" encoding="utf-8"?>
<!-- Generator: Adobe Illustrator 21.0.0, SVG Export Plug-In . SVG Version: 6.00 Build 0)  -->
<svg version="1.2" baseProfile="tiny" xmlns="http://www.w3.org/2000/svg" xmlns:xlink="http://www.w3.org/1999/xlink" x="0px"
	 y="0px" viewBox="26.3 -3 800 600" overflow="scroll" xml:space="preserve">
<g id="Vanuatu">
	
		<path fill-rule="evenodd" fill="#878787" stroke="#F9F9F9" stroke-width="0.15" stroke-linecap="round" stroke-linejoin="round" d="
		M605.3,211.6l-0.2,0l-0.8,0.1l-0.3,0.5l0.6,0.4l0.5,0l0.5-0.6L605.3,211.6z M602.5,202.5l-0.4-0.1l-0.5,0.3l-0.6,1.5l0.3,0.8
		l0.6,0.9l0.8,0.3l0.8-1.2l-1.1-0.9L602.5,202.5z M602.5,196.6l0.6-0.4l-0.7-0.4l-0.1-1l-0.5-0.2l-0.8,0.3l-0.4,0.7l-0.2,1.3
		l-0.2,0.5l2.2,1.2l0.4,0.1l0.6-0.5l-0.2-0.8L602.5,196.6z M598.4,182.7l-1,0.1l-0.2-0.1l-0.2,0l-0.3,0.1l-1,1l-0.5,0.7l0.2,0.1
		l0.5-0.2l0.4,0.1l0.2,0.4l-0.6,0.4l1.4,0.3l1.2-0.1l0.8-1.1l-0.4-0.1L598.4,182.7z M600.2,174.2l-0.7-0.2l-0.5-0.8l-0.3-0.1
		l-0.2-0.3l-0.2-0.5l-0.2,0.1l-0.5,0.4l-0.2,0.6l0.1,0.8l0.2,0.4l0.3,0l1.1-0.2l1.2,0.5l0.3-0.5L600.2,174.2z M597.9,167.6l-0.8,0.2
		l-0.6,0.4l0.2,0.5l0.5,0.5l1.5,0.3l1.1-0.1l0.1-0.4l-0.1-0.4l-0.3-0.4l-0.1-1.2l-0.2-0.4L597.9,167.6z M594.7,169.4l-0.5-0.3
		l-0.2-0.6l-0.4,0l-1.2-1.1l0-0.5h-0.2l-0.4-0.2l-0.3-2l-0.7-0.4l-0.5,0.1l-0.3,0.5l-0.6,1.7l0.5,0.8l0.3-0.1l0.8-0.4l0.2,0.4l0.1,1
		L591,170l0.2,1.1l-0.1,0.1l0,0.4l0.7,0.2l1-0.8l1.4,0.2l0.9-0.7l-0.3-0.6L594.7,169.4z M590.5,162.8l0.2-0.3l0.3-0.9l-1.1-0.2
		l-0.4,0.7L590.5,162.8z M599.6,165.3l0.2,0l0.5-0.2l0.3-0.7l0-4.3l-0.1-0.5l-0.8,2.4l0,2.7L599.6,165.3z M595.7,159.5l0.4,0.3
		l1.2,0l0.7-0.5l1.2-1.7l-1.8,0.3L595.7,159.5z M601,158.1l0.3-1.5l0-2.3l-0.2,0l-0.2,0.3l-0.4,3.4l0.2,0.8L601,158.1z M591.1,159.9
		l0.1-0.5l-0.1-0.6l0.1-2.8l-0.2-0.1l-0.3-0.6l0.1-1.1l0.3-0.4l-0.4-0.1l-0.4,0.2l-0.4,1.3l-0.6,0.9l-0.4,0.2l-0.7,0l0.1-3.7l-0.6-1
		l-0.3-1.1l-0.4,0.1l-0.6,1.3l-0.2,1l0.4,4l-0.6,2.2l0.4,1.2l0.5,0.6l-0.1,0.7l0.6,0l1.2-0.6l1.5,0L591.1,159.9z M596.8,146.9
		l0.5-0.6l0.3-0.9l-0.8-0.5l-0.7,0.3l-0.3,0.3l-0.2,0.9l0.2,0.1L596.8,146.9z M596.9,142.5l0.2-0.1l0.1-0.3l0.5-0.1l0.2-0.3l0.1-0.4
		l0-0.4l-0.5-0.7l-0.8,0.4l-0.2,0.4l0.3,1.3L596.9,142.5z"/>
</g>
<g id="Solomon_Islands">
	
		<path fill-rule="evenodd" fill="#878787" stroke="#F9F9F9" stroke-width="0.15" stroke-linecap="round" stroke-linejoin="round" d="
		M594.9,117.1l-0.1-0.6l-0.6-0.1l-0.5,0.2l0.4,1l0.3,0l0.9-0.2L594.9,117.1z M532.3,117.9l-3.3-2.3l-0.7-0.2l-0.2,0.3l-0.1,0.5
		l0.2,0.5l0.8,0.2l0.1,0.2l0.4,0.4l1.1,0.2l0.8,0.5l0.3,0.9l0.4,0.3l0.6,0.2l0.7-0.4l-0.3-0.4L532.3,117.9z M589,106.6l-1-0.2
		l-1.1,0.1l-0.5,0.3l-0.3,0.6l-0.4-0.1l0,0.3l0.2,0.7l0.4,0l0.4,0.1l0.7-0.8l0.6-0.1l0.2,0.1l0.8-0.2l0-0.1l0.4-0.6L589,106.6z
		 M551.5,106.9l-1-2.3l-0.4-0.6l-0.8,0.3l-1-0.4l-0.7,0.1l-1.2-0.7l-0.1-0.2l-0.4-0.2l-1.6-1.3l-0.9-0.4l-0.8,0l-0.3,0.9l0,0.5
		l1,0.1l0.8,0.3l0,1l0.3,0.4l-0.1,0.8l2.2,1.7l1.1,0.5l1.3,0.2l0.7,0.4l0.8-0.2l0.9,0.3l0.7-0.1l-0.8-0.5L551.5,106.9z M544.6,93.7
		l-0.1,1l-0.1,0.9l0.3,0.4l0.4-0.3l0.6,0.9l0.1-0.4l0-1.2l-1.1-2.9l-0.4-0.2l0.3,1L544.6,93.7z M537.8,95.9l-0.7-0.3l-0.4-1.1
		l-0.9-0.6l-1.5-1.3l-2.8,0l-0.9,0.2l-2-1.8l-0.6,0l-0.6,0.5l-0.2,0.5l-0.1,1.3l0,0.7l0.5,1.2l0.6,1l0.4,0.4l0.5,0.3l1.4,0.2
		l3.1,0.1l1.5,0.8l1.6,0.4l0.6-0.2l0.9-0.4l0.2-0.2l-0.1-1.1L537.8,95.9z M532.9,88.9l0.7,0.4l0.1,0.4l0.1,0.1l0.2-0.1l0.7,0.2
		l0.4-0.5l-0.8-0.9l-0.6-0.6l-0.3,0l-0.5-0.2l-0.7,0.4l0,0.5L532.9,88.9z M523,88l-0.2-0.1l-0.5,0.4l-0.5,0.5l0.3,0.4l0.6,0l0.4,0.1
		l0.1,0l0.5-0.3l0-0.7l-0.5-0.1L523,88z M508,84.7l-0.5-0.1l-0.7,0.1l0,0.3l1.2,0.6l0.5,0.1l0.1-0.4l-0.2-0.3L508,84.7z M514.2,84.4
		l-0.6,1.2l0.2,0.4l0.2,0l0.5-0.3l-0.1-0.4L514.2,84.4z M513.1,83.8l-0.2-0.2l0.7-0.6l-0.2-0.2l-1-0.3l-0.3,0.4l-0.3,0.2l-0.3,0.1
		l-0.1,0.2l-0.3,0.9l0.5,0.8l0.7,0.3l1-0.9l0-0.4L513.1,83.8z M506,81.7l-1.2,1l-0.3,0.5l1,1.5l0.5,0.3l0-0.2l-0.5-0.7l0.2-0.8
		l0.4-0.2l0.3-0.9l-0.3-0.6L506,81.7z M528.4,81.5l-0.4-0.4l-0.4,0.2l-0.2,0.6l0.3,0.4l0.7,0.4l0.5-0.2l-0.3-0.6L528.4,81.5z
		 M543.5,94.5l0.4,0.2l0.1-0.4l0-0.9l-0.9-1.9l0.1-1.4l-0.4-0.7l0-0.4l-0.3-1.4l-1-1.2l-0.6-0.2l-0.3-0.4l0.2-1.1l0.4-0.4l0.2-0.6
		l-2.1-3.3l-0.5,0l-0.2,0.2l-0.4,0l-0.5-0.1l-0.1,0.5l1,1.8l-0.6,0.9l0.7,3.8l0.8,2.1L541,91l0.1,0.4l1.4,0.9L543.5,94.5z
		 M511.3,82.5l-0.5-2l-0.5-0.9l-1.1-0.3l-0.3-0.6l0-1.8l-1-0.4l-0.6,0.2l-1,1.2l-0.2,0.7l-1,0.6l-0.2,0.6l0.1,0.6l0.7,0.2l0.5-0.6
		l1.5-0.2l0.5,0.1l0,0.8l0.1,1.2l0.6,0.6l0.9,0.3l0.6,1l0.2-0.4l0.5,0L511.3,82.5z M498.7,76.6l-0.1,0.4l-0.1,0.7l0.4,1.4l0.1-0.3
		l0.2-0.8l-0.3-1.5L498.7,76.6z M504.8,77.8l0.2-0.7l-0.1-0.8l-0.3-0.6l-0.4-0.3l-0.8,0.1l-0.7,0.8l-0.1,0.8l0.7,1.1l1.1,0.1
		l0.2-0.2L504.8,77.8z M499.9,72.6l-0.7-0.4l-0.6,0.7l0,0.7l0.9,1.1l-0.1,0.7l0.2,0.2l0.3,0.6l0.2-0.2l0.2-0.5l0.9-1.1l0.2-0.6
		l-0.9-0.3L499.9,72.6z M529.4,82.2l1.2,0.9l0-0.3l-0.2-0.8l-0.5-0.6l0.6-0.9l-3.7-3.3l-0.6-0.4l-0.8-0.2l-0.8-0.7l-0.9-0.1
		l-0.9-0.7l-0.3-0.5l-1-0.7l-1.1-1.3l-2.6-0.7l0.2,0.4l0.8,0.8l0.2,1.2l0.8,0.7l0.8,1l0.5,0.2l0.2,0.4l0.8,0.9l1.4,0.7l1.4,1
		l0.5,0.1l0.6,0.6l2.7,1.2L529.4,82.2z M491.3,66l-0.3,0.8l0.6,0.4l1-0.3l0.3-0.6l-1.2-0.8L491.3,66z M501.1,64.8l1.8,3l1.8,1.6
		l1.4,0.3l0.7-0.1l0,0.2l0.2,0.4l1,0.4l0.8-0.7l-0.3-0.4l-0.3-0.2l-0.4-0.1l-0.7-0.3l-1.3-1.3l-0.4-0.5l-0.3-1.7l-0.7-0.7l-2.5-1.4
		l-1.5-1.4l-1.2-0.4l-0.3,0.3l0,0.9l0.3,0.5L501.1,64.8z"/>
</g>
<g id="Samoa">
	
		<path fill-rule="evenodd" fill="#878787" stroke="#F9F9F9" stroke-width="0.15" stroke-linecap="round" stroke-linejoin="round" d="
		M801.3,143.2l-0.4-0.3l-0.6-0.1l-0.2-0.7l-2.3-0.8l-1.3,0.2l-0.7,0.4l0.1,0.6l0.9,1.1l0.5,0l1.2,0.5l2.7,0l0.1-0.3L801.3,143.2z
		 M793.9,137.5l-1.8,0.2l-1.6,0.5l-1-0.1l0.2,0.7l0.7,0.7l0.9,1.6l0.5,0.1l1.5-0.3l1,0.3l0.7-1.3l-0.2-1.4L793.9,137.5z"/>
</g>
<g id="Papua_New_Guinea">
	
		<path fill-rule="evenodd" fill="#878787" stroke="#F9F9F9" stroke-width="0.15" stroke-linecap="round" stroke-linejoin="round" d="
		M465.3,115.4l-2.1-1.3l-1-0.4l0,0.3l0.2,0.8l0.8,0.6l-0.4,0.5l0.7-0.2l0.1,0.7l1.3,0.4l0.3,0.4l1.4-0.2l0.6-0.3l-0.5-0.6
		L465.3,115.4z M471,113.6l0.1,0.6l-0.9-0.2l0,0.3l0.3,0.5l0.5,0.1l1.1-0.3l0.3,0.2l0.2-0.6l-0.4-0.2L471,113.6z M439.8,105.2
		l-0.2,0.5l0.1,0.2l0.8,0.3l0.2-0.9l-0.2-0.1L439.8,105.2z M444.4,98.5l-0.8,0.8l-0.4,0l-0.3-0.4l0.1-0.5l-1.7-1.5l-0.4-0.7
		l-0.4-0.3l0.1,0.7l0.6,1.1l0.2,1l0.5,0.3l0,1l2,0.7l0.5,0.4l0.9-2.6l-0.4-0.4L444.4,98.5z M437.3,94.9l1.4,0.1l1,0.3l1.3,0l0.4,0.1
		l-0.1,0.4l0.5-0.4l0.1-0.3l-0.1-0.7l0-0.8l-0.8-1.1l-0.4-0.1l-0.8,0.3l-1.3-0.9l-0.3,0l-0.6,0.2l-0.1,0.3l0,0.5l0.6,1.1l-0.2,0.3
		L437.3,94.9z M436.4,93.7l0.2-0.3l0.3-1.1l-0.1-0.5l-0.3-0.9l-1-0.6l-0.8,0.6l-0.4,1.1l1.4,1.5L436.4,93.7z M462.4,89.9l0.3-0.2
		l0.1-0.2l0-0.3l-0.4-0.4l-0.4-0.3l-0.5-0.2l-0.3-0.6l-1.2,0.1l-0.6-0.2l-0.5,0.1l-0.6,0.4l1.1,0.5l0.6,0.8l0.1,0.4l0.4,0.1l1,0.5
		l0.6-0.2l0.4,0.1L462.4,89.9z M370.2,82.7l-1.4-0.5l-0.8-0.5l0.4,0.7l0.7,0.3l1.3,1.1l1.4,0.7l-0.1-0.5L370.2,82.7z M444.9,81.6
		l-0.5,0.3l-0.5,0.8l0.7,0.5l0,0.3l-0.1,0.5l-0.4,1l0.7,0.8l-0.1-0.8l0.5-1.8l-0.2-0.5l0.1-1.1L444.9,81.6z M371.2,81.1l-2-0.1
		l0.4,0.5l1.7,0.8l0.4,0l0.1-0.2l0-0.8L371.2,81.1z M416.6,52.4l0.1,0.5l0.4-0.1l0.4-0.7l0.2-1.3l-0.2-0.4l-2-1.3l-0.5,0l-0.1,0.3
		l-0.1,1.2l0.8,1.4L416.6,52.4z M493.8,61l-0.4-1.1l-0.5-1l-0.8-0.9l-0.9-0.8l-0.5-0.3l-0.6-0.2l-0.5-0.4l-0.8-1.9l-0.5-0.5
		l-0.9-0.7l-0.3-0.4l-0.1-0.6l-0.8-1.7l-0.9-0.9l-1.2-0.2l-0.5-0.3l-0.4-0.4l-0.4-0.1l0,1.1l-0.5,2.2l0.1,0.8l0.3,1.3l0.2,0.4l0.8,1
		l0.6,0.5l0.6,1.1l0.3,0.3l1.5,0.8l0.2,1.2l-0.3,1.3l0.4,1.1l0.7,1.1l0.8,0.7l0.9,0.5l0.9,0.3l1,0.1L492,64l0.4-0.4l0.9-0.4l0.2,0.4
		l0.2-0.2l0.3-1L493.8,61z M407.7,46.5l-0.1,0.5l0.2,0.4l0.8,1.1l0.6-0.1l0.5-0.6l-0.1-1.4l-0.7-0.7L407.7,46.5z M483.1,46.1
		l-0.3-0.8l0-1l-0.5-0.4L482,44l-0.7,0.8l0.2,0.5l0.1,0.8l0,1l0.3,1.4l0.2-0.1l0.5-0.6L483.1,46.1z M397.6,40.9l0.7-0.3l0.4-1
		l-0.1-0.7l-0.4-0.4l-0.4,0.2l-0.6,0.6L397,40l0.2,0.7L397.6,40.9z M458.2,43.6l0.5-0.2l0.4-0.3l1-1.5l0.5-1l0.1-1.1l-0.2-0.8
		l-0.1-0.8l0.5-1.7l-1-0.2l-1-0.4l-0.7-0.8l-1.5,1.2l-0.5-0.2l-0.5-0.4l-0.4-0.5l-1.1-0.2l-1.1,0l-0.3,0.5l-0.2,0.6l0,0.5l0.9,3.2
		l0.1,1.4l-0.2,1.4l-1,0.6l-1.3-0.1l-0.6,0.1l-0.5,0.2l-1.9,1.7l-0.7,1l-0.5,1.3l-0.7,1.1l-0.5,0.3l-0.6,0.1l-0.6,0.2l-0.5,0.4
		l-1.1,0.1l-1-0.7l-1.1,0.1l-1.1,0.7l-1.1-0.1l-0.7-1l-0.2-1.3l0.2-1.4l0.3-0.6l0.6-0.7l-0.4-0.6l-0.3-0.1l-0.5,0.3l-0.4,1.2
		l-0.7,3.4l-1.3,0.8l-1.5,0l-0.5-0.1l-1.6,0.6l-1.1,0.1l-1.1-0.1l-1.2-0.6l-1.2-0.4l-2.1,0.3l-0.6-0.2l-0.6-0.1l-0.5,0.2l-0.5,0
		l-1.3-0.4l-0.9,0.8l-0.2,1.4l0.6,1.1l1,0.4l1.1,0.3l0.9,0.4l0.8,0.5l2.7,2.2l0.3,0.1l1.5-0.5l1.1,0l0.9,0.5l1,1.5l0.5,0.3l0.9,0.1
		l1-0.1l3.3,0l2.3-0.1l0.5-0.1l1.2-0.8l1.2-0.4l0.6-0.4l0.5-0.5l1.1-0.5l1.2-0.1l0.5-0.2l1.4-0.9l1.1-0.9l1-1l0.4-0.5l0.3-0.5
		l0.1-0.7l0.4-0.4l1.8-0.1l1.7,0.2l1-0.4l1.1-0.8l0.7-1.1l-0.6-1.2l-0.7-1.1l-0.1-0.8l0.3-0.8L458.2,43.6z M472.7,33.6l0.6,0.3
		l0.1-0.3l0.1-0.6l-0.2,0L472.7,33.6z M464,23.9l0.3-1l-0.3-1l-0.7,0.2l-0.3,0.4l0.4,0.8L464,23.9z M457.4,20l0.1,0.3l0.8,1.1l0.3,0
		l0.1-0.6l-0.2-0.3l-0.9-0.8L457.4,20z M457.9,19.4l-0.1-0.8l-0.5-0.3l-0.2,0.5l0,0.9l0.2,0L457.9,19.4z M438.9,101.9l-1.2-0.6
		l-1.7-0.2l-0.8-0.3l-0.7-0.4l-1.1-0.4l-1.1-0.3l-0.5-0.2l-0.4-0.3l-0.4-0.9l-0.5-0.7l0.1-0.7l1-0.4l0.6-0.1l0.6-0.3l0.3-0.5
		l-0.3-0.3l-1-0.3l-1.1-0.2l-2.7-0.3l-0.5-0.2l-1.4-0.8l-0.5-1l0.2-1.2l0.6-1.3l0-1.2l-0.4-0.4l-0.5-0.2l-0.4,0l-3.1,0.8l-1.1,0
		l-0.9-0.4l-0.4-1.3l-0.5-2.7l-0.3-0.3l-1.5-1.2l-0.1-0.5l0-0.6l-0.1-1.3l-0.4-2l-0.2-0.6l-1.7-1.4l-1.1-0.4l-0.9-0.7l-1.6-1.8
		l-0.8-1l-0.8-0.9l-1-0.8l-0.6-1l-0.7-2.3l-1.2-2.6l-0.1-0.5l0.1-0.5l1.7-1.2l2.3,0.2l3.5-0.2l1-0.2l0.4-0.5l0.2-1.2l-0.2-2
		l-0.2-0.6l-0.4-0.3l-0.3-0.3l-0.7-1.2l-0.8-1.1l-0.4-0.4l-0.9-0.6l-0.4-0.2l-1.3,0l-1.2-0.1l-0.8-0.3l-6-3.4l-1.9-0.8l-2-0.5
		l-1.4-0.3l-1-0.8l0.6-2.5l0.1-3.2l-0.2-0.7l-4-4.9l-1.2-0.1l-1.2-0.3l-0.7-0.8l-0.6-1l-0.9-1l-1-0.8l-1.1-0.4l-0.7-0.9l-0.2-0.6
		l-0.4-0.3l-0.5-0.2l-0.5-0.1l-1.2,0.2l-1.2,0l-0.5-0.1l-0.5-0.2l-1.2-1l-0.8-0.9l-0.9-0.5l-1.8-1.6l-1.3-0.4l-2.4-0.4l-1.1-0.1
		l-1.1-0.3l-3.4-1.3l-3.2-1.3l-2.2-1.3l-0.5-0.1l-0.5,0l-0.5-0.2l-1.4-1l-4.8-2.4l-0.8-0.2l-1,0l-0.3,0l0,0l0,0.7l0,1.4l-0.1,2.3
		l-0.1,2.3l-0.1,2.3l-0.1,2.3l-0.1,2.3l-0.1,2.3l-0.1,2.3l-0.1,2.3l-0.1,2.3l-0.1,2.3l-0.1,2.3l-0.1,2.3l-0.1,2.3l-0.1,2.3l-0.1,2.3
		l-0.1,2.3l-0.1,2.3l-0.1,1l-0.4,1.2l-0.8,1.8l-0.2,1.4l0.5,1.1l0.5,0.7l-0.1,1.9l-0.2,2.3l-0.2,2.3l-0.2,2.3l-0.2,2.3l-0.2,2.3
		l-0.2,2.3l-0.2,2.3l-0.2,2.3l-0.2,2.3l-0.2,2.3l0,0.1l1.4,1.1l0.8-0.1l0.8-0.5l1.1-0.2l1.1,0.4l1,0.2l1,0l2.5-0.2l2.5-0.3l0.6,0.1
		l1,0.4l0.4,0.2l0.9,0.7l1.1,0.3l2.2-1.4l2.2-1.2l1.5-0.6l1.4-0.8l0.3-0.6l0.1-1.2l-0.1-0.4l-0.6-1.1l-0.7-1l-1-1.1l-0.4-0.2
		l-0.5-0.1l-2-1.1l-2.2-0.1l-1,0.4l-0.8-0.6l-0.2-0.7l-0.3-0.6l-1.2,0l0.7-0.2l0.7-0.1l0.2,0.4l0.2,0.5l0.4,0.7l0.7,0.1l0.9-0.4
		l0.9-0.2l1,0.2l0.9,0.3l1.9,0l1.9-0.5l1.7-0.3l1.6-0.4l-0.2-1l-0.3-0.9l-0.2-0.3l0.3-0.2l1.1,0.1l1.1,0.4l0.5,0l0.5-0.1l-0.4-0.8
		l0.5,0.1l0.5-0.1l-1.6-4.4l-0.8-1l0.6,0.4l0.5,0.6l0.5,0.7l0.6,0.6l0.7,0.4l1.6,0.6l0.8,0.1l0.5-0.6l0.6-0.4l0.3-0.1l0.5,0.2l0.3,0
		l0.2-0.9l0.6-0.3l0.8,0.2l0.8,0.4l0.9,0.2l0.9-0.1L385,74l0.3,0.5l0.5,0.3l1,0.3l1.1,0.1l0.9,0.2l1.7,0.8l0.9,0.2l1.6,0.1l0.4,0.2
		l0.4,0.3l2.1,0.9l0.4,0.4l0.2,0.6l0.3,0.5l0.4,0.4l0.6,1.1l0.3,1.2l1.4,2.1l0.6,1.2l0.8,2.2l0.6,0.8L403,89l0.6,0l0.5-0.4l-0.4,1
		l-0.1,1l0.8,1.6l0.4,0.4l2.1,1.7l1,1.1l0.7,1.3l0.4,1.4l0.5,0.5l0.5,0.6l0.9,0.6l1.2,0.2l1.5,0.5l0.5,0l0.5-0.2l1.1,0.2l1.1,0.6
		l0.5,0.1l1.6-0.1l0.6-0.2l0.6,0.1l1.1,0.7l0.9,0.2l4,0.4l1.8,0.5l1,0l1,0.2l0.7,0.5l1,0.9l0.3,0.4l0.3,0.7l1.2,0.5l1.7,0.4l1-0.1
		l0.6-0.1l1.4-0.9l0.3-0.4l-0.4-0.4l-1.1-0.6l-0.7-1l0.4-0.4l1.8,0.3l0.6-0.2l1.6-0.9L438.9,101.9z M467.1,33.7l-5.9-5.8l-0.5-0.7
		l-1.4-1.2l-1.1-1.4l-0.3-0.3l-2.2-0.9l-1.1-1.1l-1-0.8l-1.1-0.7l-1.5-0.7l-0.9-0.1l-0.5-0.9L448,18l-1.6-1.3l0.1,0.8l-0.2,0.8
		l-0.8,0.3l1,0.5l1.2,0l0.9,0.5l3.2,2.3l0.6,0.7l1.1,0.6l2,2l0.8,0.7l0.9,0.6l0.5,0.2l1.1,0.2l0.5,0.2l0.8,0.8l0.7,1l2.2,3.6
		l0.6,1.5l0.2,1.7l-0.1,0.8l-0.2,0.8l0,0.8l0.5,1.5l0.4,0.7L465,41l0.4,0.8l0.8-0.8l0.6-1l0.3-1l0.1-1.1l0.7-0.9l0.2-0.4l0-1.1
		L467.1,33.7z M438.8,16.1l0.5,1l0.6,0.6l0.7,0.2l2-0.2l0.1-0.3l0.1-1l0-0.3l-0.2-0.5l-1.9-1l-1.2,0.2l-1.4,0.8l0.2,0.2L438.8,16.1z
		 M417.3,14.1l0.3-0.6l-0.4-0.4l-0.2,0.2l-0.2,0.5l-0.5,0.1l0.3,0.2L417.3,14.1z M404.9,12.7l0.6-0.4l0.6,0.1l0.5-0.4l1.7,0.4l1.3,0
		l0.8-0.2l0.6,0.2l1-1l0.4-0.3l0.5,0.1l0.5-0.1l0.1-0.5l-0.2-0.2l-0.1,0.1l0,0.3l-0.2,0l-3.2-0.7l-2.1-0.1l-1,0.3l-1,0l-0.6,0.5
		l0.1,0.9l-0.7,0.3l0,0.3l0.1,0.6L404.9,12.7z M435.7,5.6l0.7,0.2l0-0.4L436,4.1l-0.9-0.8l-0.5-0.1l-0.3,0.6l0,0.7l1.2,1.2
		L435.7,5.6z"/>
</g>
<g id="New_Zealand">
	
		<path fill-rule="evenodd" fill="#878787" stroke="#F9F9F9" stroke-width="0.15" stroke-linecap="round" stroke-linejoin="round" d="
		M396.7,567l-0.4,0l-0.2,0.4l0.1,0.2l0.2,0.2l1.1-0.2l0.1-0.5l-0.3-0.1L396.7,567z M390.9,546.1l-0.3,0.4l-1.3,1.1l-2.1,0.9
		l-0.6,0.5l0,0.1l0.6,0l0.7-0.4l0.1,0.1l0,0.4l0.7,0.3l0.5,0l0.6-0.9l-0.1-0.1l0.2-0.4l0.5-0.2l0.3-0.4l0.4-0.4l0.8-0.4l0.2-0.2
		l0-0.2L392,546L390.9,546.1z M440.9,506.8l0.3-0.4l-0.2-1.8l-1.5,0.1l-1,1.1l-0.6,1.2l-0.9,0.5l-0.5,0.6l-1,0.3l-0.6,0.5l-0.5,0.6
		l-1.3,0.6l-0.7,0.6l0.2,0.1l1.2-0.2l1.5-0.7l0.3-0.1l0.7,0.1l1.5-0.7l1.6-0.2l0.8-0.3l0.5-0.5l0.2-0.5l-0.8,0.1l0-0.3l-0.5-0.3
		l0.4-0.5L440.9,506.8z M437.5,493.8l0.3,0.2l0.4,0.1l0.3,0l0.3-0.3l0.5-0.5l0-0.2l-0.2-0.3l-1.3,0.3l-0.8,0.6l0.2,0.1L437.5,493.8z
		 M444.6,489.5l0.6-1.3l-0.2,0l-1.1,0.6l0,0.4L444.6,489.5z M600.7,477.6l-0.6,0.6l0.5-0.1l1-0.6l0.1-0.5l-0.8,0.1L600.7,477.6z
		 M601.3,472.1l-0.8-0.1l-1.4,0.7l0.3,0.1l1.7-0.2l0.4,0.3l-0.2,0.5l-0.8,0.6l-1.1,0.6l-0.2,0.3l-0.4,0.8l0.2,0.1l0.5,0l0.9-0.4
		l1.3-0.3l0.2-0.2l0.2-0.8l-0.5,0l0.3-1l0.9-0.5l0-0.1l-0.4-0.2l0.3-0.2l0.9-0.1l0,0.3l-0.7,0.8l1.9-1.1l0.5,0l0.5-0.3l-3.2-0.2
		L601.3,472.1z M542.5,440.1l0.6-0.8l-0.8,0.4l-0.3,0l-0.9,0.5l-0.9,1l-0.4,0.4l1.7-0.6L542.5,440.1z M541.7,444.1l0.4-0.4l1-0.6
		l0.6-0.5l-0.7,0.1l0.2-0.4l-0.6,0.1l-0.4,0.1l-0.4,0l-0.6-0.1l-0.3,0.4l-0.1,0.5l-0.8,0.3l-0.8,0.6l-0.1,0.3l-0.7,0.6l-1.1,0.4
		l1.2-0.9l0.5-0.7l0.9-0.6l0-0.4l0.3-0.3l0.7-0.2l1-0.7l-0.5,0.1l-0.7,0.3l-1.2,0.2l-0.5,0.2l-2.5,1.2l-1.4,0.5l-1.4,0.6l-1.5,0.8
		l-1-0.1l0.3-1l0.7-1.2l0.9-1.4l0.3-1.1l-0.9-0.3l-0.6-0.5l0-0.5l0.2-0.6l0.5-0.7l0.7-0.7l2.1-0.3l-0.8-0.3l-1.1,0.1l-0.8,0.2
		l-2.3,1.1l-2.8,1.5l-2.6,2.1l-2.4,2.8l-2.6,2.6l-1.3,1l-2,1.3l-1.4,0.7l-0.7,0.3l-1.3,0.1l-0.7,0.4l-2,1.9l-1.4,1.2l-1.2,1.2
		l-1.1,1.2l-1.2,1.1l0.2,0.3l-0.1,0.3l-0.5,0.1l-0.4,0.1l-0.5,0.2l-3,2.1l-0.7,1.1l-0.6,0.6l-0.4,0.2l0.6-0.7l0.4-0.6l0-0.5
		l-2.2,1.4l-1.5,0.8l-0.5,0.5l-0.4,0.6l-0.1-0.7l-0.5,0.1l-1.1,0.4l-0.1,0.3l0.3,0.5l-0.4-0.4l-0.5-0.2l-0.9,0.3l-1,0.4l0.4,0.3
		l-0.2,0.5l-0.1-0.3l-0.4-0.1l-0.7,0.2l-0.9,0.6l-0.6,0.3l-0.5,0.2l-1.4,0.9l-2,0.8l0.3,0.2l-0.3,0.2l-0.5,0l-0.4,0.4l-0.2,0.4
		l-0.6,0l-1.4,0.6l-1.6,0.3l-2.3,0.8l-2,0.8l-0.6,0.5l-0.4,1l-0.3-0.1l-0.3-0.4l-0.9,0.3l-2.5,1.1l-0.3,0l-0.9-0.3l-2.2,0.6
		l-1.2,0.6l-2.7,1.5l-2.7,1.4l-2.6,1.5l-0.7,1l0,0.4l-0.3,0.4l-0.1-0.4l-0.4-0.3l-1.2,0.5l-1.9,1.1l-1.1,0.3l-0.5,0.3l-0.3,0.4
		l-0.1,0.4l-0.4,0.4l-0.5,0.5l0.6-1.4l-3,1.5l-0.5,0.4l-0.1,1.4l0.2,0.4l-0.7,0.1l-0.2-0.5l-1.5,0.8l-0.5,0.6l-0.3,0.5l0.5,0.5
		l0.6,0.2l0.1,0.1l-0.8,0.1l-0.4,0.2l-0.3,0.4l-0.1,0.6l-0.7-0.3l-0.6-0.8l-0.4,0l-0.4,0.6l0.1,0.4l-1.3,0l-0.8,0.6l-0.7,0.8
		l1.1,0.1l1.2-0.2l-2,0.8l-0.6,0.5l-0.3,0.6l1.6,0.1l-0.8,0.4l-1.2,0.3l-3.1,0.4l-0.4,0.2l-0.7,0.8l-0.4,0.7l1.1-0.1l1.5-0.7
		l-0.2,0.4l-0.3,0.4l-1.3,0.8l0.6,0.1l1.7-0.8l0.7-0.3l-3.3,1.9l-0.4,0.7l0.6,0.3l2.1,0.3l2.4-0.1l0.5-0.1l1.3-0.8l0.5-0.1l0.9,0.5
		l0.1,0.4l-0.1,1.5l0.5,0l1.7-0.2l0.9,0.1l0.2,0.3l0,0.4l0.2,0.3l-0.2,0.5l-0.6,0.6l-0.1,0.5l0.1,0.2l0.9-0.2l0.7,0.3l0.7-0.3
		l1.4-0.2l0.5,0.1l0.8,0.4l1,0.2l2.2-0.1l3.6-0.7l0.6-0.3l0.6-0.5l2.6-1.6l3.8-1.9l1.4-0.8l1.4-1l1.2-0.5l2.6-0.5l0.6-0.2l0.5-0.1
		l0.4-0.3l0.4-0.6l-0.1-0.4l0-0.5l0.3-0.3l2.4-1.8l1.9-1.6l1.8-1.7l1-0.7l2-1.2l0.7-1.6l-0.6-0.4l0-0.3l1.3,0l1.7-1.6l1.4-1.7l0.9-1
		l2.6-2.4l-0.1-0.2l-0.3-0.2l1.2-0.1l0.9-0.5l0.8-0.8l0.8-0.2l1.3,0l0.6-0.2l1.3-0.6l1-0.4l1-0.2l1.2-0.4l1.3-0.5l0.1-0.7l0-1
		l0.2-0.4l0.5,0.7l0.2,0.7l0.3,0.5l0.5-0.1l0.6-0.3l0.5-0.6l0.6-0.3l0.6-0.2l0.3,0.1l0.2,0.4l-1.5,0.6l0.2,0.1l0.6-0.1l1.9-0.2
		l0.1,0.6l0.7,0.2l1-0.1l0.5-0.1l0.5-0.3l0.6-0.5l0.6-1l0-0.3l-1-0.2l-0.9-0.4l0.1-0.6l0.2-0.5l0.3-0.5l-0.2-0.3l-1.6,0.2l0.6-0.3
		l0.7-0.1l0.8-0.3l0.7-0.5l-0.1-0.4l-0.4-0.2l0.2-0.3l1-0.1l1.3-0.7l1.3-0.8l2.2-0.7l1-0.4l1-0.5l2.2-1.5l4.4-3.5l0.8-0.5l3.9-2.2
		l0.9-0.6l0.6-0.9l1.2-0.5l1.3-0.8l2.7-1.6l0.5-0.4l0.9-0.8l-0.1-0.7l-0.3-0.2l-0.9,0.1l1.6-1.2l-0.2-0.6l0.1-0.4l0.3-0.5l0.8-0.7
		l0.9-0.4l0.7-0.2l0.9-0.5l1.2-0.8l0.7-0.9l-1.3,0.7l-1.9,0.8l-0.8-0.1l0.8-0.3L541.7,444.1z M587.8,390.5l0,0.5l0.6,0.2l0.3-0.6
		l0.4-1.2l-0.2-0.7l0-0.5l-0.2,0.1l-0.2,0.2l-0.7,0.5l-0.4,0.9l0,0.1L587.8,390.5z M605.5,405.7l-0.5-0.6l-2.3-0.1l-0.6,0.3
		l-0.7,0.4l-1.2,0.4l-1.1,0.6l-1.4,1.2l-1.5,1l-1.4,0.7l-1.3,0.4l-0.6,0l-1-0.1l-2.9-1.1l-1-0.7l-1.9-1.7l-0.3-0.2l-0.5,0l-0.6-0.2
		l-0.3-0.5l0.1-0.3l0.3-0.2l0.5,0.3l0.2-0.5l-0.4-1.1l0.9-2.6l1.2-2.8l0.2-0.9l-0.1-0.8l0.4-0.8l-0.9,0.1l-0.3-1.9l0.1-0.6l0-0.5
		l-0.7,0.3l-0.5,0.6l0.1,0.4l0,0.5l-0.1,0.6l-0.3,0.7l-0.5,0.7l-0.4,0.7l-0.7,2l-0.6,1.3l-0.5,0.5l-0.8,0.2l-0.6-0.1l0-0.6l0.6-1.3
		l0.1-0.5l-0.4-0.2l-1.4-0.7l-0.5-0.7l-0.4,0.1l-0.5,0.5l-0.1-0.4l-0.3-0.2l-0.6-0.1l0.3-0.5l0.4-0.2l1.1-1.4l0.6-0.4l0.2-1.4
		l0.5-0.5l0.3-0.6l0.8-0.9l-0.3-2.6l0-0.8l0.1-1.4l-0.2-1l0.1-0.3l1.2,0.2l0.5-0.1l0.1-1.3l0.5-0.5l0.4-0.5l0.1-1.4l-0.2-0.5l0-0.5
		l0.1,0l0.1-0.5l0-0.9l-0.4,0.1l-1.1,0.6l-0.5-0.1l0-0.4l0.2-0.5l0.4-0.5l0-0.3l-1.1-1l-0.5-0.3l-0.4,0.2l-0.4,0.3l-0.3-0.2
		l-0.1-0.5l-1.7-0.7l-0.2-0.2l0.6-0.9l-0.9,0.6l-0.7,0.6L576,376l0.1-0.5l0-0.4l-0.3-0.5l0.2-0.5l-0.1-1.8l-0.2-0.6l0-0.7l1.4-1.2
		l-1.6,0l-1.7,0.2l0.4,2l0.6,1.9l0.2,1.2l0,1.3l-0.7,1.2l-1.2,0.9l0.1,0.5l0.1,0.9l0.4,0.1l0,0.3l-0.3,0.5l0,0.4l0.2,0.6l0.4-0.2
		l1-0.9l0.6-0.4l0.6-0.4l0.5-0.2l0.4,0.1l-0.4,0.4l-0.4,0.4l-1.4,0.8l-1.1,0.9l0.9,7.1l0,0.7l-0.2,1.4l0.2,0.4l0.5-0.2l0.5-0.6
		l0-0.4l-0.4-1.6l0-1.4l0.3-0.7l0.3-0.5l-0.2,1.3l0,1.1l1.2,1.4l0.3-0.1l0.1-0.5l0.4-0.4l0.3,0.1l0.4,0.8l-0.2,0.4l-0.7,0.6
		l-0.3,0.6l0.3,0.3l0,0.5l-0.3,0.7l-0.6,0.6l-0.5,0.4l-0.7-1.3l-0.6,0.1l0.3,2.6l-0.1,0.5l-0.4,1.3l-0.1,0.7l0.4,0.4l0.5,0.1
		l0.7-0.2l0.7-0.3l0.5-0.1l0.4,1.6l-0.6,0.1l-0.7,0.2l-0.8,0.5l-0.5,0.7l0.2-1.4l-0.3-0.2l-0.4,0.3l-0.4,2l0,0.6l0.5,0.2l-0.6,0.6
		l-0.5,0.6l-0.2,0.6l-0.3,2l-0.1,1.3l-0.6,0.2l-0.6,0.3l-0.6,0.5l-0.5,1.4l-0.8,0.9l-1.7,1.4l-2,2.3l-1.6,2l-1.5,2l-0.7,0.6
		l-1.6,0.9l-0.8,0.4l-0.5,0.1l-0.4,0l-2.6,0.7l-2.8,1.2l-0.6,0.3l-0.5,0.5l-0.5,0.6l-0.4,0.6l-0.2,0.6l-0.1,0.6l0.5,0.9l1.5,0.7
		l1.3,0.8l0.3,1l0.4,0.9l0.8,0.4l1,0.1l1.1,1l0.1,0.9l-0.2,0.9l-0.3,1l-2.1,2.4l-1.2,1.3l-3.1,2.5l-3.2,2.3l-2.7,1.7l-0.5,0.4
		l-0.5,0.4l-0.1,0.3l0.1,0.1l0.8,0l1-0.4l0-0.3l0.4-0.3l0.4-0.1l0.2,0.2l-0.5,0.4l-1,1.4l-0.1,0.2l0.2,0.1l1.7-0.5l0.8,0.3l-0.1,0.3
		l-0.5,0.9l-0.2,0.4l0.5,0.4l0.9-0.3l0.9-0.5l3.2-1.4l2.1-1l2.1-1.2l1.4-0.9l1.3-1.1l2.4-1.7l1.4-1.2l1.4-1.1l1.6-1.1l2.2-1.4
		l1.8-1.6l1.2-0.7l1.2-0.8l3-1.8l3.1-2.6l-0.8-0.8l0.1-0.6l0.4-0.7l1.1-1.4l1.4-1.1l0.7-0.5l0.7-0.4l2-0.8l1.3-0.4l1.1-0.1l1.1,0.1
		l1,0.3l0.1,0.4l-0.2,0.9l0.2,0.2l1.2-1.1l0.2-0.5l-0.1-0.4l0.2-0.5l1.4-1.8l1.4-1.5l1.2-0.3l1.3-0.7l1.4-0.9l1.2-1.2l2-2.7l2.1-2.7
		l1.2-1.2l1.3-1.1l0.6-0.7l-0.3-0.4L605.5,405.7z M812,91.8L812,91.8l-0.1-0.2l0,0l0,0.1L812,91.8l0,0.1L812,91.8L812,91.8z
		 M800.3,83.1l-0.1-0.1l0,0L800.3,83.1l0,0.2l0,0.1l0,0l0-0.1L800.3,83.1z"/>
</g>
<g id="New_Caledonia">
	
		<path fill-rule="evenodd" fill="#878787" stroke="#F9F9F9" stroke-width="0.15" stroke-linecap="round" stroke-linejoin="round" d="
		M575.8,238.1l-0.4,0.9l0.1,0.2l0.2,0.2l0.4,0.1l0.4-0.4l0-0.5L575.8,238.1z M584.6,226l-0.4-0.2l-0.1-0.3l0-0.4l0.1-0.4l-0.7,0.4
		l-1.1,0.2l0.3,1.5l-0.2,0.6l0.6,0.3l0.1,0.4l0.4,0l1.2-0.3l0.6-1.9L584.6,226z M578.8,219.8l0.5-1.8l-0.2-0.4l-0.6-0.3l-1.5,0.5
		l-0.2,0.4l0.9,0.1l0.4,0.4l-1,1.1l-0.8,0.2l0.2,0.8l0.4,0.7l1.2,0.4l0.5,0.8l0.5-0.1l0.5-0.8l0.1-0.4l-0.4-1.3L578.8,219.8z
		 M573.2,214.5l-0.1,0.4l-0.5,1.2l-0.2,0.6l-0.9,1l0.5-0.1l0.5-0.4l0.5-0.7l-0.2-0.1l0.1-0.7l0.3-0.5l0.6-0.3l-0.4-0.4L573.2,214.5z
		 M571.2,232.3l-1.1-0.7l-0.8-0.9l-0.7-1l-1.4-1.6l-2-1.7l-0.9-0.5l-0.5-0.6l-0.5-0.3l-0.3-0.6l-1-0.5l-0.5-1l-1-1.1l-0.2-0.4
		l0.1-0.7l-0.2-0.5l-0.6-0.5l-0.3-0.8l-0.5-0.5l-0.7-0.3l-1.1-0.7l-3-3.3l-1.2-1.1l-1.2,0.3l-0.9-0.7l-1.1-1.2l-0.3,0.3l-0.2,0.7
		l0.2,0.5l0.5,0.3l0.2,0.5l-0.2,0.7l0,0.7l1,1.7l0.3,1.2l0.5,1l0.8,0.9l0.7,1l1.4,2.3l0.5,1l0.7,0.4l1.7,2.2l0.7,0.6l0.9,0.4
		l1.6,1.2l1,0.6l0.6,0.8l0.9,0.6l1.4,0.5l0.2,0.4l0,0.6l0.2,0.5l0.9,0.7l1.1,0.5l0.1,0.4l0.2,0.3l0.5-0.1l0.4,0.2l1.6,1.2l0.6-0.2
		l0.6,0l0.8-0.3l0.5-0.7l-0.1-1.9L571.2,232.3z M511.9,202.5l0.2-0.2l0.4-0.8l0.2-1.4l-0.4,0.7L511.9,202.5z"/>
</g>
<g id="Fiji">
	
		<path fill-rule="evenodd" fill="#878787" stroke="#F9F9F9" stroke-width="0.15" stroke-linecap="round" stroke-linejoin="round" d="
		M646.7,228.5l0,0.2l0.3,0l0.1-0.1l0-0.2l-0.2-0.1L646.7,228.5z M713.8,217.2L713.8,217.2l-0.1-0.2l0,0l-0.1,0.1l0,0.1l0,0.1l0.1,0
		l0.1,0L713.8,217.2L713.8,217.2z M719.5,200.6l-0.1-0.1l0-0.2l0.1-0.1l0.1-0.1l-0.1,0l-0.2,0.1l-0.1,0.2l0,0.2l0.2,0.2l0.2,0.1
		l0.1-0.1l0-0.1L719.5,200.6z M690.2,198.1l-0.6,0.3l-0.7,0.1l-0.7,0.6l-0.6,0.4l-0.5-0.1l-0.6,0.5l-0.5,0.2l0.5,0.3l1.4-0.3
		l0.2-0.1l0.1-0.2l0.3-0.3l0.9-0.7l0.2,0.1l0.3,0.4l1.3-0.3l0.1-0.5l-0.6-0.3L690.2,198.1z M707.6,198.2l-0.1,0.2l-0.1,0.2l0,0.2
		l0.1,0l0.1-0.1l0.1-0.2l0.1-0.1l0.1-0.1l0.1,0.1l0.1,0l0.1-0.3l-0.3-0.2L707.6,198.2z M719.3,190l0.1,0.2l0.4,0.3l0.2-0.2l0.1-0.5
		l-0.3-0.1L719.3,190z M702.2,187.1l-0.4,0.3l-0.2,0.3l-0.1,0.3l0.6,0.9l0.1-0.1l0.2-0.4l0-0.8L702.2,187.1z M718.2,186.9l-0.4,0.3
		l0.1,0.3l0.2,0.2l0.2,0l0.3-0.2l0-0.3L718.2,186.9z M725.7,186.5l-0.4-0.1l-0.4,0.5l0.4,0.5l0.6-0.1l0-0.3L725.7,186.5z M698,183.6
		l-0.5,0.7l0.1,0.7l0.5-0.2l0.4-0.5l0-0.7L698,183.6z M694.7,182.5l-0.5-0.9l-0.3,0l-0.2-0.2l0.1-0.5l-0.2-0.5l-0.5-0.2l-0.6,0.3
		l-2,0.6l-1.2-0.1l-2.1,0.8l-1.3,0.9l-1.2,1l-0.1,0.6l0,0.6l-0.2,0.2l-0.3,0.1l-0.2,0.3l-0.1,0.4l-0.5,0.3l-0.6,0.2l-0.2,0.6
		l-0.1,0.6l0.3,1.2l0.5,0.5l0.6,0.3l1.6,0.4l1.2,0.4l0.6,0.4l1,0.1l1.1-0.2l0.9,0l1-0.7l1-0.5l0.9-0.1l0.3,0.2l0.3-0.3l1.1,0
		l0.8-0.3l-0.1-1.6l0.1-1l0-1l0.3-0.6l0.1-0.5l-0.5-0.6L694.7,182.5z M705,179.5l-0.3,0l-0.2,1.5l0.4-0.3l0.4-0.7l0-0.4L705,179.5z
		 M721,178.7l-0.4-0.4l-0.2,0.1l0,0.2l0.3,0.3l-0.1,0.3l-0.4,0.6l0.2,0.1l0.3-0.4l0.4-0.3l0.2-0.3l0-0.2L721,178.7z M684.8,177.8
		l0.3-0.6l-0.3,0.1l-0.2,0.1l-0.3,0.3l-0.5,0.9l0.5-0.2L684.8,177.8z M713.5,173.2l-0.3,0.1l-1.2,0.9l0,0l-0.9,1l-0.6,1l0.2,0.4
		l0.8-0.4l0,0l0.3-0.4l1.2-0.8l0.7-0.9L713.5,173.2z M711.8,174.7l-0.1,0.4l-0.1,0.5l-0.1,0.6l0.3-1.1l0.2-0.8L711.8,174.7z
		 M712.4,171.6l0.1,0l0.1-0.6l-0.2,0.4L712.4,171.6z M713.4,170.9l0.4-0.5l-0.4,0.1l-0.7,0.5l-0.1,0.6l0.8-0.4L713.4,170.9z
		 M711.3,168l-0.7-0.2l-0.8,0.2l-0.9,0.3l-0.9,0.5l-1.3,1l-0.7,0.2l-0.7,0.1l-1.4,0.4l-1.4,0.5l-1.1,0.6l-0.8,1l-0.6,0l-0.6,0.3
		l-0.5-0.2l-0.4-0.3l-0.3,0.5l-0.3,0.4l-0.3,0.3l-0.3,0.7l1,0.1l0.2,0.6l0.1,0.8l0.3,0.6l1-0.3l0.9-0.7l0.6,0.2l0.6,0l0.7-1l1.7-1.1
		l1,0l0.2,0.1l0.1,0.6l0.2,0.2l0.4,0.2l0.4,0l1.2-0.2l1.3-0.5l1-0.1l1,0.1l-0.2-0.9l0.4-0.9l0.3-0.4l0.1-0.4l-0.4,0l-0.5,0.2l-1.6,1
		l-1.5,1.3l0.2-1.2l0.8-1.2l1.5-0.9l0.6-0.8l0.7-0.8l1.8-1.5l0-0.2l-1.6,0.7L711.3,168z M713.5,167.3L713.5,167.3l0,0.2l0.5-0.2
		l0.2-0.3h-0.2L713.5,167.3z M692.8,127l0.4-0.1l0.1-0.1l-0.1-0.1l-0.5-0.1l-0.4,0.1l-0.2,0l0.1,0.2L692.8,127z"/>
</g>
<g id="Australia">
	
		<path fill-rule="evenodd" fill="#878787" stroke="#F9F9F9" stroke-width="0.15" stroke-linecap="round" stroke-linejoin="round" d="
		M289.5,590.2l-0.4,0.5l0.7-0.4l1.9-1.4l1.1-1.1l-0.8,0.4L289.5,590.2z M285.1,467.5l-0.4,0.4l-0.2,0.1l-0.3,0.3l-0.3,0.2l-0.4-0.2
		l-0.1,0.2l0,0.7l0.8-0.2l0.6,0.2l1.1-1.1l0.2-0.5l0.2-0.7l-0.2,0L285.1,467.5z M287.4,465.2l-0.3,0.3l-0.3,0.2l0.2,0.2l-0.2,0.5
		l0.1,0.1l0.6,0l0.5-1.3l-0.1-0.4L287.4,465.2z M296.9,460.1l-0.1,0.2l-0.4,0.6l0.1,0l0.6-0.1l0.2-0.3l0.8-0.3l0-0.4l-0.5-0.2
		L296.9,460.1z M309.4,440l-0.6,0l-1.5,1l-0.5,0l-1.6-0.3l-0.6,0.3l-1.3,1l-0.7,0.4l-0.5-0.2l-0.4-0.3l-0.5,0l-0.6,0.3l-1.1,0.1
		l-1,0l-0.8,0.3l-0.8,0.4l-0.5,0.6l-0.3,0.6l-0.2-0.6l-0.3-0.4l-0.9,0.4l-0.9,0.3l-2.4,0.2l-1.6-0.5l-2-1l-0.2-0.3l-0.1-0.4
		l-0.3-0.2l-0.8-0.4l-0.1-0.4l-0.4-0.1l-0.5,0.1l-0.5-0.3l-0.2-0.6l-0.5-0.1l-0.8,0.3l-1,0l-1.6-0.7l-0.6-0.5l-0.8,1.2l-1.8,2.2
		l-0.5,1.1l-0.4,1.2l-0.4,1.6l-0.3,0.5l-0.1,0.3l-0.2,2.4l0.1,2l0.4,2.1l-0.4,0.9l-0.8,1l0.6-0.1l0.6-0.5l-0.2,0.5l-0.1,0.4l0.5,1.4
		l-0.1,0.4l-1.2,1.1l0.3-0.9l-0.1-0.7l-0.8-1.2l-1.2,2.4l-0.3,1l-0.6,4.1l0.1,0.3l0.3,0.2l0.2,0.3l0.1,0.8l-0.1,1.8l0.3,0.5l1-0.2
		l1.1,0.4l0.5-0.1l0.2,0.2l-0.1,0.4l-1,0l-1.2,0.2l-0.3,0.3l0,0.4l-0.4,1.1l1.5-0.4l2,0.1l1.3-0.1l0.7,1l1.1,0.2l0.4-0.1l1.5-1.2
		l1.4-1.4l0.6-0.5l0.7-0.5l-0.4-0.6l0.2-0.3l0.3-0.4l0.9,1.1l0.9-0.4l0.8-1l0.4-0.6l0.5-0.4l0.5-0.2l0.5-0.5l0.3-0.4l0.2-0.9
		l0.3-0.5l0.3,1.1l-0.6,1.5l1-0.4l0.3-0.2l0.5-1l0.6-0.3l0.9,0.3l0.6,0.6l-0.1,0.3l-0.2,0.3l-0.4,0.2l-0.6-0.3l-0.6,0.4l-0.3,1.1
		l0.1,1l0.6-0.3l1-0.1l0.5-0.3l1.2-2.1l0.6-1.5l1.1-1.7l0.7-0.9l0.9-0.7l0.8-0.8l0.6-1l0.7-0.9l1-1l1-0.7l0.4-0.2l0-0.2l0.6-0.6
		l0.7-0.5l-0.1,0.6l-0.5,0.2l-0.3,0.2l0.4,0.4l0,0.4l-0.2,0.4l-0.4,0.5l-0.1,0.4l0.3,0.1l0.4-0.5l0.3-0.6l0.4-0.5l0.1-0.4l0-0.4
		l0.2-0.4l0.6-0.8l0.5-1.2l1.2-1.8l0.5-1l0.6-1l1-1.2l0.7-1.3l0.3-0.6l0.3-0.6l1.2-1.8l-0.1-1L309.4,440z M312.7,437l-0.8,0.2
		l-0.1,0.2l0.2,0.5l0.9-0.8l-0.1-0.1L312.7,437z M282.4,436.2l-0.5,0.4l-0.5,0.2l-0.3,1.1l0.8-0.9L282.4,436.2L282.4,436.2z
		 M315.1,434.8l-1.5,0.6l-1.2,0l-0.6,0.3l-0.1,0.3l0.4,0.5l1,0.1l1.1-0.3l-0.1,0.7l0.5-0.1l1-0.6l-0.1-0.7L315.1,434.8z
		 M316.1,431.7l-0.5-2l-0.4-0.3l-1.5,1.2l-0.9,0.4l0.2,0.4l0.6-0.1l-0.1,0.7l-0.4-0.4l0.2,1.7l-0.1,0.4l0.1,0.3l0.2,0.2l1.1-0.3
		l1.2-0.7l0.1,0l0.3-0.3l-0.4-0.5l0.6-0.4l0.6,0l-0.1-0.2L316.1,431.7z M277.9,432.3l1-0.6l0.7,0.1l0.2-0.9l0.7-1l0.6-1.6l-0.5-0.6
		l-0.5,0l-0.5,0.8l-0.8,0.5l-0.4,0.4l-0.5,1l-0.7,0.9l0,0.9l-0.6,0l-0.1,0.6l0.3,0L277.9,432.3z M298.9,416.3l0.1-0.2l0-0.5
		l-0.1-0.2l-0.6-0.2L297,416l1.3-0.1L298.9,416.3z M301.2,414l-0.3-0.5l-1.2,0.1l-0.2,0.2l-0.3,0.6l0.3,0.3L301.2,414z M246,384.4
		l-1,0.4l-2.1-0.3l0.1-0.2l0.7-0.7l-0.3-0.4l-0.4-0.2l-1.7-0.1l-2.6,0.8l-4.6,1l-0.8,0.7l-0.7,0.9l0.2,0.5l1,1.1l1.4,0.2l1.2-0.3
		l1,0.2l0.8-0.6l1.4,0.4l0.3,0.6l1.5-0.5l0.7-1l0.6-0.5l1.7-0.3l1.4,0.4l0.5-0.1l0.8-0.5l-0.2-1.1L246,384.4z M427,292l-0.7,1.1
		l-0.6,1.8l0.1,0.5l0.2,0.1l1.8-3.1l-0.1-0.2L427,292z M427.7,288.1l-0.5,1l-0.2,1.1l0.1,1.1l0.3-0.2l0.3-1.3l1-1.8l-0.3-0.1
		L427.7,288.1z M48.6,277.5l0.3-0.5l-0.1-0.9l-0.1-0.2l0.2-0.8l-0.2-0.7l-0.4-3.3l-0.4,0.1l-0.5,0.4l0,2.4L48.6,277.5z M433.8,264.4
		l0.4-2l-0.2-0.1l-0.4,0.1l-0.5,0.3l-0.5,0.6l0.4,0.2l0.3,1l-0.4,0.9l-0.6,0.7l-1.8,1.4l-0.1,1.2l-0.2,0.6l-0.8,1l-0.5,1.1l-0.3,2
		l0.3,0.5l0.3-0.3l0.3-0.8l1.1-1.9l3.4-5l0.3-0.9L433.8,264.4z M417.4,251.8l0.3-0.1l0.4-0.5l-0.1-0.6l-0.2-0.8l0.3-0.7l-0.2-0.2
		l-0.3,0l-0.3-0.3l-0.7-0.3l-0.4,0.8l0.9,2.3L417.4,251.8z M414.2,235.7l0.3-0.2l-0.1-0.9l-0.3-0.2l-0.2,0.6l-0.3,0.4l0.2,0.2
		L414.2,235.7z M408.9,234.2l0.1-0.5l0.1-1.1l-0.4,0.3l-0.2,0.8l0.1,0.8L408.9,234.2z M80.2,219.5l0.7-0.9l0.2-0.8l-0.1-0.5
		l-0.9,0.9l-0.6,0.7l0,0.4L80.2,219.5z M404.5,211.6l-0.7,1.4l0.4,0.2l0.3,0l0.3-0.1l0-0.2l-0.3-0.6L404.5,211.6z M404.1,211.6
		l0.2-0.2l0.3-1l-0.4,0.3l-0.3,0.4l-0.3,0.5l0.2,0.1L404.1,211.6z M382.5,190.3l-0.2,0.2l-0.5,0.2l-0.8,0l0.1,0.5l0.6,0.8l0.2,1
		l0.5,0.4l0.4-0.4l0.2-0.5l-0.3-0.8l0-1.1L382.5,190.3z M319.3,177.2l-0.6,0.5l0.1,0.5l0.4-0.2l1.1-0.2l0-0.6l-0.5-0.6L319.3,177.2z
		 M317.8,173.6l0.4,0l0.7-0.3l0.5-0.5l0.4,0.1l0.9-1l0.6-0.5l1.4-0.2l-0.7-1.2l-0.1-0.1l-1.3,0.5l-1.7,0.3l-0.7,0.7l-0.8,1.1l-0.3,1
		l0.1,0.3L317.8,173.6z M298.3,161.1l-0.3,0.6l-0.2,0.1l-0.3,0.5l0.4,0.2l0,0.6l0.4,0.5l0.5-0.5l-0.1-0.4l0.1-0.8L298.3,161.1z
		 M293.6,161.5l0.6,0l0.4-0.9l-0.2-0.1l-0.6,0.1l-0.3,0.4l0,0.5L293.6,161.5z M296.7,161.5l0.2-0.1l0.3-0.3l0-1l-0.4,0.5
		L296.7,161.5z M177.6,159.2l0.3,0.1l0.4-0.3l0.1-0.5l-0.3-0.5l-0.1-0.4l-0.3,0l-0.2,0.3l-0.3,0.5l0.3,0.5L177.6,159.2z
		 M185.4,149.8l0-0.3l0.2-0.9l-0.3-0.2l-0.5,0.4l-0.4,1.1l0.3,0.6L185.4,149.8z M298.9,142.8l0.3-0.4l0.3-0.1l0.7-0.8l-0.1-0.4
		l-0.2-0.3l-0.2-0.1l-0.5,1l-0.5,0l-0.4-0.5l-0.1-0.9l0.1-0.5l-0.4-0.1l-0.8,0.5l-0.6,0.8l-1.2,0.8l-0.4,1.6l0,1.3l-0.4,0.5
		l-0.6,0.4l0.2,0.2l0.9,0.1l1.8,0.5l1.1-0.1l1.2,0.2l0.4-0.5l0.3-0.7l-0.2-0.1l-0.5,0.2l-0.9-0.4l-0.3-0.5l0-0.5L298.9,142.8z
		 M294.1,141.1l0-0.9l-0.3-0.5l-0.6,0.8l-0.3,0.2l-0.2,0.3l-0.1,0.4l0.9,0.2l0.2-0.1L294.1,141.1z M298.1,116.6l1-0.8l0.1-0.5
		l-0.3,0.2l-1.9,1l-1,1.1l1.6-0.8L298.1,116.6z M237,119.3l1.9-0.6l1.7,0.7l1-0.2l0-0.5l-0.2-0.4l-0.3-0.4l-0.8-0.3l-0.2-1l-0.4-0.9
		l0-1l-0.3-0.9l-0.4,0l-0.5,0.3l-1.1,1.3l0.3,0.7l0,1.3l-0.6,0.4l-0.6-0.2l-0.4,1.2l0.3,0.4L237,119.3z M240.3,115.1l0.7,1.9
		l1.2,1.4l2.8,2l3.6-2.4l1-1.4l0.7,0.1l0.2-0.9l0.8-0.8l-0.1-0.2l-0.4-0.4l-0.3-0.8l-1.1-0.7l-0.4-0.6l-0.6,0.6l-0.8,0.2l-1.2,0.8
		l-0.4,0.1l-0.7-0.3l-1.6,0.8l-1.3-0.1l-0.5-0.8l-0.4-0.3l-0.8-1.1l-0.2,0l-0.2,0.1l-0.2,0.3l0.3,1L240.3,115.1z M302.1,112.3l0.6-2
		l-0.5,0.1l-0.1,0.9l-0.2,0.6l-0.2,0.2l-0.4,0.4l-1,1.6l-0.4,0.4l0,0.5l0.8-0.7L302.1,112.3z M261.4,113.7l0.2-0.2l0.5-1.5l-0.2-0.7
		l0.1-1.2l-0.1-0.3l-0.5,0.7l-0.5,0.1l0.2,0.9l-0.3,0.5L261.4,113.7z M428.3,275l-0.2-0.6l-0.2-1.4l0.7-2.8l-0.7-1.8l-1.1-0.8
		l-0.5-1.4l-0.3-1.2l0.1-0.7l-0.1-1.1l-0.8-0.8l-0.6-0.4l-1.2-1.1l-0.4-1.1l-0.6-3.3l-0.5-0.9l-1.1-0.9l-1.1-0.1l-0.7-0.2l-2-2.1
		l-0.7-0.5l-0.4-1l-0.7-1l-0.4-0.8l-0.6-0.8l0.2-3.1l0.7-3l0.6-3.6l-0.5-1.8l-0.4-0.6l-0.6,0.2l-0.3,1.1l0,0.8l-0.4,0l-1.1-1
		l-1.4-1.1l-0.6-1.2l-0.4-1.1l-0.5,0l-0.4,0.2l-0.7,1.4l0.1,2.4l-0.4,0.3l-0.4-0.5l-0.7-1.2l-0.6,0.4l-0.7,0.2l-0.3-1.2l-0.3-0.8
		l-0.1-2.6l0-2.9l0.4-2.1l-1-1.1l-0.1-2l-0.3-0.5l-0.1-1.4l-1-1.8l-1.2-1.3l-0.9-1.2l-0.7-1.7l0.7-1.2l0.7,0.3l0.8-0.1l-0.4-1.3
		l-0.4-0.9l-1.2-1.6l-0.6-0.4l-1.5-0.2l-1.4-1.5l-0.9-0.6l-0.7-0.1l-0.8-0.2l-0.4-0.8l-1-0.3l-1.2-1.6l-0.4-1.6l-0.3-0.6l-0.4-0.5
		l-0.8,0.3l-0.6,0.1l-1.3-0.2l-0.3-0.7l-0.7-0.8l-1.6-0.2l-1.2-0.5l-0.9-0.5l-0.9-0.7l-0.7-1.1l-0.5-1.5l0.5-1.9l0.5-1.3l-1-0.5
		l-1.3-2.6l0.1-1.1l0.9-2.2l1.2-3.8l-0.2-2.8l-0.8-3.4l0.4-1.7l-0.7,0l-0.7-0.3l-0.8-1.7l-0.7-1.1l-0.4-1l-0.4-1.4l0.3-1.1l0.3-0.8
		l0.4-2l-0.5-1.9l0.1-2l-0.3-2.5l0.5-1.7l0.1-1.4l0-1.2l0.4-0.8l0.3-1l-0.9-1l-1-0.7l-1.2-1.3l-2.3-2l-0.4-1.5L373,146l-1.5,0.5
		l-1.1,0.3l-1.2,1l-1.5,0.8l-1.3-0.7l-0.6-0.6l-0.2-2l-0.3-2.2l-0.4-1.1l-0.2-1.3l0.8-3.3l-0.3-1.6l0.1-2.3l-0.2-2.6l-0.4-1.3
		l0.2-1.1l-0.9-1.6l-0.2-1.1l-0.6-0.4l-0.7-0.6l0-0.9l0.1-0.6l0.6-1l0.4-1.3l-1.1-0.3l-0.8-0.1l-0.5-0.4l-0.5-0.7l0-2.1l0.3-2.2
		l0-1.4l-0.2-1l-0.1-1.1l-0.4-1.2l-1.5-1.5l0.2-0.6l0.5-0.8l-0.5-0.5h-0.9l-0.6,1.1l-0.9,0.9l-1.6,0.7l-0.7,3.6l-1.4,4l-1.2,2.9
		l0.1,0.9l-0.2,0.9l-0.4-0.4l-0.4-0.5l-0.8,1.2l-1.5,3l-0.3,1.6l0.6,0.4l0.4,0.4l0.5,0.1l0.2,0.4l0,0.8l0.3,0.6l-0.2,0.7l-0.4-0.3
		l-0.9,0l-0.5,0.6l-1.3,1.2l-0.2,3.5l-0.8,1.8l-0.7,1.4l-1,2.7l-0.1,1.4l0.4,1l0.4,1.5l-0.6,2.1l-0.6,1.5l0.1,4.2l-0.1,2.3l-0.7,1.5
		l-2,4.5l-1.1,3.3l-0.1,1.8l-0.8,1.7l-1.1,2.7l-1.1,2l-3.2,4.1l-0.8,2l-1.3,2.5l-2,1.4l-1.5,0.9l-3.1,0.9l-1.7,0l-0.8-0.5l-0.4-0.5
		l-1.8-0.8l-2.1-1.8l-1.8-0.6l-0.6-1.8l0-0.7l-0.2-1l-0.7-1.3l-1.8-0.4l-1.7-0.9l-1.2,0.1l-2.4-0.8l-1.5-1.1l-1.3-1.6l-1.6-2.7
		l-1.6-0.7l-2-1.1l-1.1-0.9l-0.7-0.5l-0.7-0.7l-0.8,0.2l-1.3,0l-0.7-0.7l0-0.5l0.2-0.4l0.2-0.7l-0.3-0.1l-0.3,0l-0.3,0.2l-0.4,0.1
		l-1.1-0.6l-1.5-0.9l-0.2-0.8l-0.4-1l-2.1-1.5l-1.1-1.2l-2.7-1.8l-0.6-0.9l-0.1-0.7l-0.1-1.1l0.8-1.1l0.8-0.8l2.5-3.3l0.7-0.6
		l0.9-0.9l1-2.4l0.5-1.4l-0.3-2.1l0.4-3.5l2.5-1.4l0.7-0.2l0.6-0.3l0.6,0.4l0.4,0.7l0.5-0.1l1.6-2.5l-0.1-1l-0.4-0.9l0.3-0.5
		l4.6-4.8l-0.3-1.2l-0.6-0.3l-1.1,0.1l-0.9-1l-0.5-2l-0.9-0.1l-1.9,2l-0.2,0.5l0.4,0.3l0.2,1.2l-0.8,1.4l-0.7,0l-1.1-0.1l-0.4-1
		l0-1.5l-0.6-0.4l-0.8,0.3l-0.7,0.5l-0.5,0.2l-0.3-0.4l0.1-0.6l1.1-1.1l0.9-0.7l0.1-0.3l-0.6-0.2l0.1-0.5l0.9-0.9l-0.4,0l-1,0.9
		l-1.1,0.5l-1.5,1.2l-2,0.8l-1.4,1l-1.8-0.3l-1.6-1l-0.3-0.5l-0.8-0.8l-2,0.8l-1.2-0.1l-0.6-0.3l-1.1-0.2l-0.9-0.7l-2.2-1.2
		l-2.4-0.2l-1.2,0.1l-0.8-0.6l-0.8-0.4l-1.6-0.3l-0.6-0.9l-0.7-1.9l-0.6-0.5l-1-0.2l-1.2,0.9l-0.7,0.4l-1.1-1.5l-2-1.6l-0.7-0.2
		l-0.4,0.4l-0.3,0.7l-0.4,0.1l-0.4-0.3l-0.8-0.9l-0.5-0.2l-1.6,1l0.1,0.3l1.1,0.5l1.1,1.4l0.6,0.3l1.4-0.4l1.9,0.3l1.8,1.7l-0.4,0.9
		l-0.3,1.2l-0.1,1.3l-0.1,0.9l0.7,1l-0.4,0.1l-0.9-0.2l-0.7,0.3l-0.7,0.5l-0.4,1.3l-0.3-0.6l-1.1-0.6l-0.7,0.5l-1.2,0.6l-1-0.2
		l-0.6-0.3l-1.6,0.5l-2.8,0l-0.9-0.7l-0.1-1.3L248,122l-0.3,0.6l-0.5,0.7l-1.7,0.1l-0.3,0.3l0,0.6l-0.2,0.8l-0.7,0.1l-0.8,0.2l0,1
		l0.1,0.8l-0.3,0.4l-0.8-0.7l-0.3-0.7l-0.6-0.2L241,126l-0.2,0.7l-0.1,1.7l-0.5,0.2l-1.1-0.1l-0.6,0.3l-1,2.2l-1.6,0.8l-0.4,1.1
		l-0.2,1l1,1.7l-0.7,0.9l-0.7,0.7l-0.7,0.3l-1.3,0.3l-1.1,0.8l-0.5,0.8l-0.2,0.8l-0.4,1l-0.6,1.2l-0.2,0.7l-1,0.6l-1.8,1.9l-1,2
		l0.9,1.1l1.1,0.8l0.9,0l0,0.2l-1,0.8l0.5,0.8l0.8,0.8l0.5,0.1l0.3,0.3l-0.9,0.2l-1.2,0.1l-0.4,0.8l0,1l0.1,0.8l-0.2,0.6l-0.4-0.4
		l-0.1-0.6l-0.9-1.3l-0.7-0.4l-1.1-0.3l-0.4,0.4l-0.2,1.9l-0.3,0.9l-0.3-0.5l0.1-1.4l-0.9-1.1l-3.9-1.1l-0.6-0.1l-1,0.1l-0.7,0.5
		l-0.1,0.4l-0.5,0.4l-0.8,0.4l-0.7,0.6l-0.5,0.5l-0.1,0.7l0.4,1.2l0.3,0.4l-0.1,0.6l-0.4-0.6l-0.4-0.2l-0.6,1l-0.4,0.2l0.5-2.7
		l0.7-1.8l0.5-1.1l0.5-0.8l-0.1-0.4l-2.5-2.5l-0.9-2.1l-0.7-1.2l-1.2-1.1l-0.6-0.7l-1.5-1.1l-1.8-0.7l-0.8-1l-1-0.4l-1.3,0.5
		l-0.2,0.9l0,0.9l-1.2,1.5l-1.2,0.8l-0.7-0.9l-0.7-0.7l-0.8,0.5l-0.3,0.8l-0.4,0.3l-0.2-0.6l-0.3-1.2l-0.6-0.5l-0.7,0.2l0.1,1
		l0.3,0.5l-0.2,0.8l-0.5,0.4l-0.2,0.7l-0.4,1l-0.1,1.4l-0.8,0.3l-0.7,1.1l-0.4-0.2l0-0.7l-0.1-0.7l-0.8-0.3l-0.4,0.7l-0.2,0.2
		l-0.3,0l0.3-0.5l0.1-1l0.4-1.1l-0.7-0.4l-0.3,0.2l-0.1,0.9l-0.4,1.3l-0.8,0.2l-0.7,0.6l-1,0l-0.5,0.3l-0.3,0.7l-0.9,0.7l-0.1,0.9
		l0.5,0.9l-0.1,0.8l1.3,0.8l-0.2,0.8l-0.2,0.4l-0.5-0.1l-1-0.7l-1.1-0.1l-0.3-0.3l-0.2,0.2l-0.1,0.5l-0.5,0.4l-0.6,0l-0.8,0.6
		l0.4,0.9l-0.1,0.3l0.2,0.4l1.1,0.1l0.5-0.1l-0.1,0.8l-0.3,0.8l-0.5,0.3L182,159l-2-1.3l-0.5-0.1l-0.2,0.4l0,0.5l-0.5,0.7l-0.9,0.9
		l-0.5-0.2l-0.7,0.2l-0.6,1.5l-0.4,1.5l0.6,1l0.3,1.4l1.2-1.7l0.4-0.2l-0.1,0.7l-0.5,0.7l-0.4,0.9l-0.2,1l-0.7,0l-0.7-0.1l-0.2,0.3
		l-0.4,0.8l0,1.1l0.4,0.4l1.1,0l0.9,0.1l0.8,0.4l0.1,0.3l-0.7-0.2l-1.6,0.1l-0.7-0.1l-1.5,0.1l-1-0.6l-0.5-0.6l-0.8-0.2l-0.8,0.2
		l-0.6,0.8l-0.6,0.2l-0.9-2.1l-0.8-0.1l-0.5,0.5l0.2,1.3l-0.3,0.8l-0.5,0.6l-0.5,0l-0.4,0.3l0.2,0.6l0.6,1.4l0.6,0.6l0.5,0.9
		l0.2,0.7l0.8,0l0.1,0.6l-0.6,0.9l-0.2,1.4l-0.3,0.1l-0.4-0.3l-0.7-0.8l-0.4-0.2L166,177l-0.2,0.6l0,1.5l-0.8,2.2l0,0.6l-0.2,0.5
		l-0.3-0.4l-0.3-0.8l-0.7-1.3l-0.7-2.8l-0.9-1.9l-0.4-1.6l-0.5-3.1l-0.5,0l-0.9,1.3l-1,1.7l-0.6,0.9l-1.3,0.9l-0.9,0.9l-0.9,0.3
		l-1.1,1l-0.8,0.8l-1.3,2l-0.4,1.3l-0.2,1.3l0.1,1.9l0,2.8l0.6,0.3l0.5,0.5l-0.3,0.8l-0.9,0.5l-2.9,2.6l-1.8,0.9l-0.6,0.7l-0.8,1.4
		l-1.2,1.7l-0.6,1.1l-1.3,2.1l-1.9,2.4l-1.8,1.8l-2,1.4l-1.3,0.7l-4.6,2l-2.4,0.7l-4.2,0.5l-1.9,0.9l-2.1-0.3l-2.4-0.2l-3.9,3
		l-2.9,0.7l-2.6,0.5l-1.2,0.5l-2.7,1.7l-1.6,0.8l-2.8,0.9l-1.1-0.1l-1.4-0.8l-1.4,0.2l-1.5-0.1l-1.3,0.1l-1.1,0.7l-6.3,3.5l-1.3,1
		l-1.4,1.4l-1.9,1.3l-1.6,1.5l-3.1,1.5l-3.1,1.2l-1.6,1l-1.2,1.3l-2.4,3.5l-0.5,0.9l-0.9,0.9l-1,0.3l-0.7,0.3l0.5-1.8l-0.4-1.6l1-3
		l0-0.9l-1.1,0.6l-0.7,0.6l-2.3,4.4l-1.6,3.4l0.5,1.9l0.1,1.1l-0.2,1.2l-0.6,1.7l-0.2,1.1l-0.4,1.5l-2.6,3.5l-0.9,1.5l-1.2,2.9
		l-0.3,1.3l-0.3,2l0.5,1.8l0.4,1.1l0.4,3.2l0.7,2.1l1.1,4.2l1.4,3.4l-0.1,1.3l-0.6,1.7l-0.3,1.8l-0.5,0.5l-0.9,0.6L56,280l-0.3-0.7
		l0-2.6l-0.2-0.1l-0.6,1.1l-0.5,0.5l-0.3-0.3l-0.2-0.4l0-0.4l0.2-0.5l0.5-1.9l-0.6-1.1l-0.5-1.2l-0.8-0.3l-0.6,0.5l-0.2,0.7l0.7,2.1
		l0.3,2.2l0.8,1.4l0.6,0.4l0.5,0.8l-0.6,1.9l-0.7,0.7l-0.5,0.4l-1.4-0.4l0-1.3l-0.6-2.6l-0.1-1l-0.3-0.3l-0.2,0.5l-0.2,0.9l-0.3,0.4
		l-0.2,0l-0.3-0.5l-0.3-0.3l-0.3,0.1l0.3,0.7l0.5,2l2.5,4.8l1.8,5.5l0.2,2.2l-0.8,4.8l0,1.2l1.2,2.4l1,2.7l0.2,1.4l-0.3,1.2l0.1,1.1
		l1.4,3l0.1,3.2l-0.2,1.2l-0.8,2l-0.7,3.5l-0.3,1.9l-0.3,3.8l0.1,2.7l0.6,1.7l0.4,3.8l1,4.3l-0.3,2.1l-1.9,5.7l-0.8,1.8l-0.6,0.3
		l-0.6,0.8l-0.7,3.7l-0.6,2.1l-1.4,2l-1.4,1.8l-1.9,1.2l-1.7,0l-0.5-0.7l-0.7-0.7l-1.2,3.2l-0.9,2.7l-0.1,1l-0.4,1.2l0.8,1l0.7-0.4
		l0.8-0.1l2.2,1.4l1.1,1.1l1.4,3l1.9,0.8l2.3,1.4l3.1,0.4l2.5,0.1l3.8,0.7l1-0.3l1.8-0.2l1.5-0.5l1.3-0.3l4.6-2.8l4.5-2.9l1.8-0.2
		l1.6,0l2.2-1l2.8-3l1.1-0.7l1.4-0.7l3.4-0.4l1.8,0.3l1.2-0.5l2.8-0.5l5.7-0.5l2.9,0.4l2-0.1l1,0.2l0.4,1.3l6.2-1.1l1.7-0.1l1,0.2
		l0.9,1l1.8-0.9l1.3,0.1l1.7-0.9l3-2.7l1.5-1.7l2.7-3.5l1.5-1.3l1.4-0.6l1.5-0.2l2.4-0.6l5.8-3l2.1-0.6l1.2-0.6l4.1-2.3l2.2-0.4
		l5.8,0.6l2.9-0.2l2.3-0.4l3.8-1.2l4-0.9l5.2-2l4.5-2l2.4-0.5l3.7-0.4l5.4-0.5l6,0.3l1.7-0.4l0.9-0.4l1.2-0.4l1.2,0.3l0.9,0.3
		l2.5,1.6l3.4,3.4l1,0.1l3.3-0.8l1,0.1l3.3,2.5l1.7,0.1l1.4-0.1l1,0.3l0.9,0.7l0.7,1.6l2.3,1.5l-0.3,1.2l-0.5,0.8l-0.7,0l-0.6,0.2
		l-0.3,2.6l0.4,2.1l2.7,0.3l0.8,0.7l0.4,0.8l0,1.3l-0.4,2l0.8,1.7l0.8,1.4l0.1,0.6l-0.2,2l0,0.6l-0.3,2l-0.2,2.3l-0.3,0.2l-0.4,0
		l-0.6-0.6l-0.4-0.7l-0.4,0.1l-0.6,0.4l-0.3,0.6l0.7-0.1l0.3,0.1l0.6,0.7l0.5,0.8l0.4,0.5l0.7,2l0.8-0.5l0.9-0.4l0.7,1.1l0.4,0.2
		l0.4-0.4l0.4-2l-0.2-0.5l0.2-0.7l0.8-0.5l0.5-0.6l1.9-1.5l4.7-4.4l1.1-0.5l1.4-1l1.7-0.7l1.8-0.9l1-0.3l1-0.2l1.3-0.8l2-2.2
		l1.9-2.6l1.3-1.2l1.8-1.2l1.7-1.7l0.4-1.3l0.5-1.4l0.3,1.1l0,1.1l-0.7,3.6l-0.9,0.8l-0.8,0.4l-0.4,1.3l-0.2,1.6l-0.4,1.3l-2,1.4
		l-1.9,1.7l-2.8,3.4l-0.5,1l-0.8,1.4l-0.4,1.2l-0.3,1.2l-1.1,1.9l-1.3,1.7l-0.8,0l-0.5-0.1l-1.2,0.1l-1-0.1l-2.7,3.6l0.7,0.2
		l0.7-0.2l1.1,0l1.5-0.6l2-0.5l0.9,0.2l1.2-0.1l3.7-4.7l1.7-3l1.4-1.4l0.7-0.9l0.8-0.9l0.3,1.5l0.1,1.5l0.6,2.4l0,1.2l-1,2.9
		l-2.5,3.4l-1,1l-1.1,0.8l-1.2,1.4l1.7,0.4l1.2,0l2.4-1l0.4-0.1l1,0l0.6-0.5l1.2-0.5l1-0.6l1.1-0.5l0.7,0.3l0.1,0.3l0.1,0.3
		l-0.6,0.7l-0.6,1.4l-0.5-0.2l-0.1-0.8l-0.7,0.2l-0.7,0.6l-0.8-0.2l0,0.4l0.1,0.8l1.2,1.6l1.1,2.1l0.3,1l0.3,3.1l-0.3,3.3l-0.5,1
		l-1.4,1.7l-1.2,1.8l-0.4,0.9l-0.2,1.2l0.3,1.2l1.5,3.3l0.3,2.9l1.4,1.5l3.2,0.5l1.3,1.1l0.9,2.2l0.5,0.2l0.9,0.1l1.8-1.3l1.7,0.1
		l1.7,1.3l1.6-0.3l0.9,0.2l1.1,0.7l1.3,1.4l1.8,0.7l0.8,1.1l0.9,0.2l1.5,0.7l1.7-0.6l1.5-0.8l4-2.7l2.7-1.3l1.3-0.5l1-0.2l1.5-0.8
		l-0.4-0.6l-0.7,0.1l-0.9-0.3l0.8-0.4l0.8-0.3l4.2-2l0.6,0.6l0.3,0.7l0.2,0.9l-1.1,1.3l-0.7,0.6l-1.5,1l-1.2,0l-0.5-0.1l0.6,1.1
		l0.7,0.7l2.8-1.3l1.1-1l0.7-0.6l0.7-0.1l0.9,0.2v0.8l-0.3,0.9l-0.9,0.3l-0.7,0.7l-0.6,0.7l0.8,0.8l0.4,0.5l0.8,0l0.8,0.1l0,1.2
		l-0.1,1.4l1-0.4l0.7-0.4l0.6,0.4l0.3,1.1l0,1.3l-0.2,0.5l0.4,0.2l0.7-0.4l0.5-0.5l0.5-1l0.7-1.5l-0.2-0.2l-1.3,0.8l-0.1-0.6
		l-0.3-0.6l0.3-0.6l0.8-0.3l0.5,0.1h0.7l4.1-0.5l7.5-5l3.1-1.8l2.9-1.4l2.8-0.9l1.3-0.3l6.5-0.5l3.2,0.2l1.8-0.3l1-0.5l2-1.3
		l1.3-0.8l1.2-0.2l0.8-1l0.5-1l0.8-1.1l0.7-2l1.4-2.7l0.9-1.4l1.6-1.9l1.3-2l1.7-2.8l1.1-1.7l1.1-1.5l1.7-1.7l1.3-1.1l3.7-4.2
		l0.8-0.4l0.5,0l0.3-0.3l0.2-0.2l-0.1-0.2l0-0.5l0.3-0.4l0.7-0.4l0.1,0.1l0.3-0.1l0.1-0.2l0.3-1.1l1.1-1.6l1.8-2.8l1.1-1.3l0.8-1
		l1.9-1.5l2-1.5l-0.3-0.2l-0.6-0.1l0.6-0.4l0.4-0.1l0.3,0.2l0.6-0.7l0.5-1l1-1.5l0.3-1.3l0.8-0.4l0.8-0.2l0.9-1.4l0.4-0.6l0.7-0.5
		l1.2-1.1l1.1-1.1l2.3-2.2l1.7-0.9l2.3-0.7l0.4-0.4l-0.4-0.2l0.1-0.2h0.7l0.6-0.8l1-0.6l1.9-1.3l1-1.2l0.7-1l1.1-2.2l3.3-2.9
		l3.1-3.9l1.4-2.5l0.9-1.3l1.1-2l0.6-2.1l0.8-1.7l3.2-4.4l1-1.8l0.9-1.2l2.4-4.4l0.9-2.3l2-2.7l2.1-2.2l0.8-2l0.1-1.5l1.2-3.2
		l-0.4-2.1l0.3-1.7l0.1-1.4l-0.5-4l0-2.3l1.2-2.3l1.6-7.5l1.9-3.8l-0.2-0.5L428.3,275z M355.7,107.5l0.9-0.6l-0.6-1.3l-0.7,0.5
		l-0.1,0.3l0,0.7L355.7,107.5z M356.5,101.7l0.6,0.2l0.6-0.7l-0.3-0.6l-0.8,0.1l-0.3,0.6L356.5,101.7z M356.1,100.8l0.3-0.8
		l-0.4-0.4l-0.6,0.8l0.4,0.7L356.1,100.8z"/>
</g>
</svg>
